<?xml version="1.0" encoding="UTF-8"?>
<svg width="24px" height="24px" viewBox="0 0 24 24" version="1.1" xmlns="http://www.w3.org/2000/svg" xmlns:xlink="http://www.w3.org/1999/xlink">
    <!-- Generator: Sketch 52.5 (67469) - http://www.bohemiancoding.com/sketch -->
    <title>calendar-fill</title>
    <desc>Created with Sketch.</desc>
    <defs>
        <linearGradient x1="62.4197346%" y1="96.3613014%" x2="62.4197346%" y2="3.60957501%" id="linearGradient-1">
            <stop stop-color="#FF9354" offset="0%"></stop>
            <stop stop-color="#F9775A" offset="100%"></stop>
        </linearGradient>
    </defs>
    <g id="页面-1" stroke="none" stroke-width="1" fill="none" fill-rule="evenodd">
        <g id="iPhone-11-rabbit" transform="translate(-569.000000, -179.000000)" fill-rule="nonzero">
            <g id="calendar-fill" transform="translate(569.000000, 179.000000)">
                <rect id="矩形" fill="#000000" opacity="0" x="0" y="0" width="24" height="24"></rect>
                <path d="M2.625,20.625 C2.625,21.0398438 2.96015625,21.375 3.375,21.375 L20.625,21.375 C21.0398437,21.375 21.375,21.0398438 21.375,20.625 L21.375,10.78125 L2.625,10.78125 L2.625,20.625 Z M20.625,4.3125 L16.6875,4.3125 L16.6875,2.8125 C16.6875,2.709375 16.603125,2.625 16.5,2.625 L15.1875,2.625 C15.084375,2.625 15,2.709375 15,2.8125 L15,4.3125 L9,4.3125 L9,2.8125 C9,2.709375 8.915625,2.625 8.8125,2.625 L7.5,2.625 C7.396875,2.625 7.3125,2.709375 7.3125,2.8125 L7.3125,4.3125 L3.375,4.3125 C2.96015625,4.3125 2.625,4.64765625 2.625,5.0625 L2.625,9.1875 L21.375,9.1875 L21.375,5.0625 C21.375,4.64765625 21.0398437,4.3125 20.625,4.3125 Z" id="形状" fill="url(#linearGradient-1)"></path>
            </g>
        </g>
    </g>
</svg>