<?xml version="1.0" encoding="UTF-8"?>
<svg width="24px" height="24px" viewBox="0 0 24 24" version="1.1" xmlns="http://www.w3.org/2000/svg"
     xmlns:xlink="http://www.w3.org/1999/xlink">
    <!-- Generator: Sketch 52.5 (67469) - http://www.bohemiancoding.com/sketch -->
    <title>smile-fill</title>
    <desc>Created with Sketch.</desc>
    <defs>
        <linearGradient x1="62.4197346%" y1="96.3613014%" x2="62.4197346%" y2="3.60957501%" id="linearGradient-1">
            <stop stop-color="#FF9354" offset="0%"></stop>
            <stop stop-color="#F9775A" offset="100%"></stop>
        </linearGradient>
    </defs>
    <g id="页面-1" stroke="none" stroke-width="1" fill="none" fill-rule="evenodd">
        <g id="iPhone-11-rabbit" transform="translate(-570.000000, -106.000000)" fill-rule="nonzero">
            <g id="smile-fill" transform="translate(570.000000, 106.000000)">
                <rect id="矩形" fill="#000000" opacity="0" x="0" y="0" width="24" height="24"></rect>
                <path d="M12,1.5 C6.2015625,1.5 1.5,6.2015625 1.5,12 C1.5,17.7984375 6.2015625,22.5 12,22.5 C17.7984375,22.5 22.5,17.7984375 22.5,12 C22.5,6.2015625 17.7984375,1.5 12,1.5 Z M6.75,9.8671875 C6.75,9.24609375 7.25390625,8.7421875 7.875,8.7421875 C8.49609375,8.7421875 9,9.24609375 9,9.8671875 C9,10.4882812 8.49609375,10.9921875 7.875,10.9921875 C7.25390625,10.9921875 6.75,10.4882812 6.75,9.8671875 Z M12,16.2421875 C9.99609375,16.2421875 8.353125,14.6648438 8.25,12.6890625 C8.2453125,12.58125 8.3296875,12.4921875 8.4375,12.4921875 L9.56484375,12.4921875 C9.66328125,12.4921875 9.74765625,12.5671875 9.7546875,12.665625 C9.84375,13.8257812 10.8164062,14.7421875 12,14.7421875 C13.1835938,14.7421875 14.1585938,13.8257812 14.2453125,12.665625 C14.2523437,12.5671875 14.3367187,12.4921875 14.4351562,12.4921875 L15.5625,12.4921875 C15.6703125,12.4921875 15.7546875,12.58125 15.75,12.6890625 C15.646875,14.6648437 14.0039062,16.2421875 12,16.2421875 Z M16.125,10.9921875 C15.5039062,10.9921875 15,10.4882812 15,9.8671875 C15,9.24609375 15.5039062,8.7421875 16.125,8.7421875 C16.7460938,8.7421875 17.25,9.24609375 17.25,9.8671875 C17.25,10.4882812 16.7460938,10.9921875 16.125,10.9921875 Z"
                      id="形状" fill="url(#linearGradient-1)"></path>
            </g>
        </g>
    </g>
</svg>